<?xml version="1.0" encoding="UTF-8"?><svg id="Layer_1" xmlns="http://www.w3.org/2000/svg" xmlns:xlink="http://www.w3.org/1999/xlink" viewBox="0 0 346.12 346.12"><defs><clipPath id="clippath"><path d="m320.2,173.06c-24.3,67.84-79.3,122.84-147.14,147.14-67.85-24.3-122.85-79.3-147.15-147.14C50.21,105.21,105.21,50.21,173.06,25.91c67.84,24.3,122.84,79.3,147.14,147.15Z" fill="none" stroke-width="0"/></clipPath></defs><path d="m320.2,173.06c-24.3,67.84-79.3,122.84-147.14,147.14-67.85-24.3-122.85-79.3-147.15-147.14C50.21,105.21,105.21,50.21,173.06,25.91c67.84,24.3,122.84,79.3,147.14,147.15Z" fill="#007148" stroke-width="0"/><path d="m172.44,11.57C96.16,38.89,33.76,99.4,3.82,174.55c29.69,75.87,92.43,137.03,169.24,164.55,76.28-27.33,138.68-87.84,168.62-162.98C311.98,100.24,249.25,39.08,172.44,11.57ZM27.01,170.05C51.84,103.58,106.22,49.85,173.06,25.91c66.83,23.94,121.21,77.67,146.04,144.14.37,1,.74,2,1.1,3.01-.73,2.04-1.49,4.07-2.28,6.09-25.34,65.03-79.06,117.48-144.86,141.05-66.35-23.76-120.41-76.88-145.49-142.66-.57-1.48-1.12-2.98-1.66-4.48.36-1.01.73-2.01,1.1-3.01Z" fill="#57bb6e" stroke-width="0"/><path d="m344.02,170.05c-.76,2.03-1.53,4.06-2.34,6.07C311.98,100.24,249.25,39.08,172.44,11.57,96.16,38.89,33.76,99.4,3.82,174.55c-.59-1.49-1.16-2.99-1.72-4.5C31.04,92.1,94.74,29.05,173.06,1c78.32,28.05,142.01,91.1,170.96,169.05Z" fill="#badebb" stroke-width="0"/><path d="m345.12,173.06c-28.42,79.33-92.73,143.64-172.06,172.06C93.73,316.7,29.41,252.39,1,173.06c.36-1.01.73-2.01,1.1-3.01,28.94,77.94,92.64,140.99,170.96,169.05,78.32-28.06,142.01-91.11,170.96-169.05.37,1,.74,2,1.1,3.01Z" fill="#238240" stroke-width="0"/><path d="m173.06,1C93.73,29.41,29.41,93.72,1,173.06c28.41,79.33,92.73,143.64,172.06,172.06,79.33-28.42,143.64-92.73,172.06-172.06C316.7,93.72,252.39,29.41,173.06,1Zm0,319.2c-67.85-24.3-122.85-79.3-147.15-147.14C50.21,105.21,105.21,50.21,173.06,25.91c67.84,24.3,122.84,79.3,147.14,147.15-24.3,67.84-79.3,122.84-147.14,147.14Z" fill="none" stroke="#231f20" stroke-linecap="round" stroke-linejoin="round" stroke-width="2"/><path d="m320.2,173.06c-24.3,67.84-79.3,122.84-147.14,147.14-67.85-24.3-122.85-79.3-147.15-147.14C50.21,105.21,105.21,50.21,173.06,25.91c67.84,24.3,122.84,79.3,147.14,147.15Z" fill="none" stroke="#231f20" stroke-linecap="round" stroke-linejoin="round" stroke-width="2"/><g clip-path="url(#clippath)"><path d="m219.73,117.04c-2.28-4.05-5.68-7.44-9.68-9.83-4.06-2.41-8.74-3.8-13.51-3.83-11.78-.07-22.06,8.24-26.21,18.45-1.45,3.54-2.16,7.32-1.94,11.05.46,7.79,5.01,16.4,13.55,20.75,11.27,5.75,25.58,2.08,33.68-6.66,7.16-7.73,9.8-19.79,4.11-29.93Zm-37.57,9.66c3.1-6.03,11.12-9.01,17.48-5.8,4.97,2.51,7.87,8.26,6.8,13.93-.95,5.03-4.85,9.05-9.84,10.2-4.75,1.1-10.06-.74-13.09-4.56-3.23-4.07-3.51-9.58-1.35-13.77Z" fill="#fff" stroke-width="0"/><path d="m215.62,146.97c-8.1,8.74-22.41,12.41-33.68,6.66-8.54-4.35-13.09-12.96-13.55-20.75-.22-3.73.49-7.51,1.94-11.05-.94,12.88,7.61,24,18.74,26.01,10.24,1.85,20.02-4.48,24.43-13,4.59-8.86,3.24-19.84-3.45-27.63,4,2.39,7.4,5.78,9.68,9.83,5.69,10.14,3.05,22.2-4.11,29.93Z" fill="#fcdfdf" stroke-width="0"/><path d="m131.58,119.43c-1.19-1.33-2.48-2.48-3.84-3.44-11.44-8.1-27.99-3.4-35.36,7.91h0c-1.21,1.86-2.18,3.88-2.83,6.05-.46,1.53-.77,3.13-.9,4.8-.69,8.57,3.7,17.28,10.74,22.13,1.26.87,2.61,1.62,4.03,2.22,5.54,2.35,11.96,2.55,17.65.59,7.75-2.67,13.97-9.39,16.04-17.31,2.07-7.93-.08-16.83-5.53-22.95Zm-17.83,11.23c2.14,1.39,3.33,3.96,3.46,6.51.15,2.85-.95,5.79-3.09,7.67-2.14,1.89-5.31,2.61-7.99,1.64-3.25-1.17-5.38-4.73-5.13-8.17.39-5.5,7.46-11.06,12.75-7.65Z" fill="#fff" stroke-width="0"/><path d="m137.11,142.38c-2.07,7.92-8.29,14.64-16.04,17.31-5.69,1.96-12.11,1.76-17.65-.59-1.42-.6-2.77-1.35-4.03-2.22-7.04-4.85-11.43-13.56-10.74-22.13.13-1.67.44-3.27.9-4.8-.05,1.25-.28,9.99,6.6,16.18,7.33,6.6,16.67,4.85,18.96,4.33,1.31-.3,11.24-2.75,15.46-12.57,4.85-11.3-2.51-21.47-2.82-21.89,1.04.74,2.43,1.86,3.84,3.44,5.45,6.12,7.6,15.02,5.53,22.95Z" fill="#fcdfdf" stroke-width="0"/><path d="m117.25,208.73c-1.17,1.77-2.15,3.63-3.01,5.38-.21.43-.41.86-.61,1.3-.96,2.15-1.73,4.37-2.37,6.64-10.22-.43-11.89-.16-14.48.5-6.39,1.62-13.47,4.32-16.31,1.14-2.61-2.92-.96-10.05,3.16-13.7.65-.58,1.35-1.05,2.08-1.45h.02c4.29-2.25,9.7-1.48,14.22-.94,3.95.47,7.92.76,11.89.94,1.8.08,3.6.14,5.41.19Z" fill="#f9ae6b" stroke-width="0"/><path d="m89.42,218.35c5.53-1.61,14.23-2.59,24.21-2.94-.96,2.15-1.73,4.37-2.37,6.64-10.22-.43-11.89-.16-14.48.5-6.39,1.62-13.47,4.32-16.31,1.14-2.61-2.92-.96-10.05,3.16-13.7.65-.58,1.35-1.05,2.08-1.45h.02s-8.61,13.39,3.69,9.81Z" fill="#ed7842" stroke-width="0"/><path d="m221.93,214.92c-.93,1.52-2.08,2.92-3.45,4.13-5.14,4.56-11.07,5.77-26.78,6.06-15.95.29-29.05-.23-39.96-.82.82-2.42,1.7-4.81,2.72-7.12,1.16-2.66,2.52-5.21,4.2-7.58,2.26.07,4.17.12,5.81.16,9.06.2,9.65-.04,13.6,1.02,6.53,1.75,11.34,4.11,16.76,1.8,1.42-.61,2.81-1.5,4.04-2.57,3.16-2.75,5.32-6.68,4.51-9.9-.13-.53-.68-2.43-3.27-4.19-8.99-6.14-28.22-.83-52.33,1.75-2.53.27-5.12.52-7.75.71-3.11.23-10.86.39-26.34.72-.29.01-.7.02-1.24.03h-.01c-3.89.06-13.92.13-26.19-.63-17.22-1.05-19.4-2.52-20.28-4.32-1.28-2.63-.16-6.8,2.44-10.54,1.82-2.63,4.36-5.05,7.32-6.59,11.33-5.93,19.39,5.91,35.85,1.58,1.39-.36,2.74-.83,4.15-1.43,4.53-1.91,9.58-5.13,17.74-10.34,10.41-6.64,11.87-8.59,16.31-8.96,10.26-.86,13.18,8.77,21.17,11.78,3.62,1.36,9.2.56,13.09,1.03,5.52.68,11.01,1.67,16.29,3.49,2.03.69,4.02,1.52,5.95,2.5,6.87,3.43,12.9,8.57,16.26,15.41,1.25,2.53,2.04,5.31,2.37,8.14h0c.6,5.13-.35,10.41-2.98,14.68Z" fill="#f9ae6b" stroke-width="0"/><path d="m221.8,209.38c1.28-21.13-15.02-32.35-15.51-32.68,6.87,3.43,12.89,8.56,16.25,15.4,1.25,2.53,2.04,5.31,2.37,8.14h0c-.1,3.68-1.21,6.7-3.11,9.16v-.02Z" fill="#fdd6b6" stroke-width="0"/><path d="m225.08,203.21c0,.37-.01.74-.03,1.11-.01.32-.03.64-.06.96,0,.09-.01.17-.02.26-.03.34-.07.67-.12,1.01-.04.29-.08.58-.13.87-.02.14-.05.27-.08.41-.01.04-.01.09-.03.13-.04.26-.1.52-.16.77-.08.36-.18.72-.28,1.07-.09.3-.18.6-.28.89-.09.27-.18.55-.29.82-.07.2-.15.4-.24.6-.11.27-.23.54-.35.8-.15.33-.31.65-.48.96-.14.27-.29.54-.45.8-.04.08-.09.16-.15.25-.21-1.52-.26-3.35-.13-5.52,1.9-2.46,3.01-5.48,3.11-9.15.06.49.1.98.13,1.48.03.49.04.98.04,1.48Z" fill="#fdd6b6" stroke-width="0"/><path d="m221.93,214.92c-.93,1.52-2.08,2.92-3.45,4.13-5.14,4.56-11.07,5.77-26.78,6.06-15.95.29-29.05-.23-39.96-.82.82-2.42,1.7-4.81,2.72-7.12,20.04,2.31,56.5,6.3,67.34-7.77-.13,2.17-.08,4,.13,5.52Z" fill="#ed7842" stroke-width="0"/><path d="m164.47,209.75c-1.64-.04-3.55-.09-5.81-.16-3.13,4.42-5.16,9.49-6.92,14.7-3.38,10.02-5.75,20.57-12.94,28.13-3.52,3.71-8.18,6.48-13.26,7.11-1.6.2-3.24.16-4.84-.1-2.95-.48-5.77-1.75-7.94-3.76-.39-.35-.75-.73-1.09-1.13-2.51-2.95-3.65-6.88-3.85-10.75-.05-.9-.05-1.8-.01-2.69.11-2.96.63-5.92,1.17-8.84.56-3,1.16-6,1.95-8.95.05-.22.11-.43.15-.6.02-.07.03-.14.05-.2.03-.1.05-.19.08-.29.02-.07.04-.12.04-.15.01-.01.01-.02.01-.02.77-2.73,1.73-5.39,2.98-7.94.86-1.75,1.84-3.61,3.01-5.38h.01c2.35-3.57,5.5-6.74,10.06-7.76,1.46-.33,2.88-.39,4.22-.27,0,0,.05,0,.13.01.07,0,.18.02.3.04,3.66.43,6.64,2.12,8.04,3.01.48-.33,1.5-.99,2.93-1.66,1.7-.8,3.97-1.59,6.59-1.8,1.5-.12,3.13-.05,4.82.33,1.76.4,5.55,1.24,8.15,4.74.01.02.03.04.04.06,1.03,1.42,1.62,2.91,1.93,4.32Z" fill="#e51e25" stroke-width="0"/><path d="m149.53,200.3c-.34.15-.73.28-1.14.4-2.41.68-4.96,4.71-12.27,15.04-7.3,10.32-8.28,28.65-13.53,27.52-5.24-1.14,4.68-28.49,9.92-35.39,4.38-5.76.78-6.89-.54-7.12,3.66.43,6.64,2.12,8.04,3.01.48-.33,1.5-.99,2.93-1.66,1.7-.8,3.97-1.59,6.59-1.8Z" fill="#c52127" stroke-width="0"/><path d="m164.47,209.75c-1.64-.04-3.55-.09-5.81-.16-3.13,4.42-5.16,9.49-6.92,14.7-2.13,6.32-3.86,12.85-6.66,18.71-1.63,3.43-3.63,6.63-6.28,9.42-3.52,3.71-8.18,6.48-13.26,7.11-1.6.2-3.24.16-4.84-.1-2.95-.48-5.77-1.75-7.94-3.76-.39-.35-.75-.73-1.09-1.13-1.88-2.21-2.99-4.98-3.52-7.85v-.02c-.17-.95-.28-1.92-.33-2.88-.05-.9-.05-1.8-.01-2.69.11-2.96.63-5.92,1.17-8.84.53-2.85,1.1-5.7,1.84-8.5-1.54,6.32-5.59,27.91,11.39,26.38,19.85-1.79,11.13-52.7,40.33-44.71,1.03,1.42,1.62,2.91,1.93,4.32Z" fill="#c52127" stroke-width="0"/><path d="m145.08,243c-1.63,3.43-3.63,6.63-6.28,9.42-3.52,3.71-8.18,6.48-13.26,7.11-1.6.2-3.24.16-4.84-.1-2.95-.48-5.77-1.75-7.94-3.76-.39-.35-.75-.73-1.09-1.13-1.88-2.21-2.99-4.98-3.52-7.85,1.39,2.76,6.72,11.63,17.09,9.83,9.56-1.65,17.02-9.95,19.84-13.52Z" fill="#f499a2" stroke-width="0"/><path d="m203.38,200.1c1.12,4.48-3.48,10.31-8.55,12.47-5.42,2.31-10.23-.05-16.76-1.8-3.95-1.06-4.54-.82-13.6-1.02-.31-1.41-.9-2.9-1.93-4.32-.01-.02-.03-.04-.04-.06-2.6-3.5-6.39-4.34-8.15-4.74-4.63-1.03-8.73.22-11.41,1.47-1.43.67-2.45,1.33-2.93,1.66-1.95-1.24-7-4.07-12.69-2.79-4.56,1.02-7.71,4.19-10.06,7.76h-.01c-1.81-.05-3.61-.11-5.41-.19,1.22-2.95,1.44-6.33.61-9.42.54-.01.95-.02,1.24-.03,15.48-.33,23.23-.49,26.34-.72,2.63-.19,5.22-.44,7.75-.71,24.11-2.58,43.34-7.89,52.33-1.75,2.59,1.76,3.14,3.66,3.27,4.19Z" fill="#010101" stroke-width="0"/><path d="m202.78,207.8c-1.27.97-2.58,1.69-3.91,2.2,3.16-2.75,5.32-6.68,4.51-9.9-.13-.53-.68-2.43-3.27-4.19-3.84-2.62-9.54-3.16-16.7-2.7-9.6.6-21.82,2.98-35.63,4.45-2.53.27-5.12.52-7.75.71-3.11.23-10.86.39-26.34.72-.29.01-.7.02-1.24.03h-.01c-3.89.06-13.92.13-26.19-.63-17.22-1.05-19.4-2.52-20.28-4.32-.42-.87-.58-1.91-.52-3.05.14-2.29,1.22-4.98,2.96-7.49.58,4.27,5.09,9.21,23.43,8.11,31.26-1.87,70.74-.22,88.71-6.81,17.98-6.6,34.32,13.6,22.23,22.87Z" fill="#ed7842" stroke-width="0"/><path d="m183.41,193.21c-9.6.6-21.82,2.98-35.63,4.45-2.53.27-5.12.52-7.75.71-3.11.23-10.86.39-26.34.72-.29.01-.7.02-1.24.03h-.01c-3.89.06-13.92.13-26.19-.63-17.22-1.05-19.4-2.52-20.28-4.32-.42-.87-.58-1.91-.52-3.05,2.52,1.79,7.36,3.52,16.64,3.83,20.49.7,66.16,1.97,90.64-1.89,3.57-.56,7.27-.46,10.68.15Z" fill="#fdd6b6" stroke-width="0"/><path d="m275.53,354.17c.35,6.87-.09,13.35-.99,19.39-.01.07-.01.11-.01.11,0,0,0,0-.01.03-1.78,12.22-5.32,22.68-7.54,31.15-5.89,5.59-12.8,10.87-20.87,15.35-12.13,6.75-25.66,11.01-39.48,12.96h-.01c-10.64,1.49-21.43,1.62-31.91.46-11.61-1.3-22.81-4.19-32.92-8.57-4.23-1.82-8.27-3.91-12.07-6.24-3.19-1.96-6.21-4.1-9.03-6.42-2.31-1.88-4.48-3.88-6.5-6-2.8-2.93-5.32-6.08-7.51-9.44-2.31-3.54-4.17-7.13-5.66-10.79-5.37-13.24-5.92-27.58-5.52-45.11.11-4.95.38-9.9.79-14.84,0-.03,0-.05.01-.08,2.02-24.11,7.57-47.92,16.44-70.42,0-.03.02-.04.02-.04,2.13,1.98,4.89,3.24,7.79,3.73.1.02.15.03.15.03.55,4.09,1.69,8.78,3.95,13.45.19.42.4.83.63,1.24.08.18.18.36.28.53.24.44.48.88.75,1.31.25.42.51.84.78,1.26.02.02.03.04.04.06.28.43.57.85.87,1.27.3.42.62.85.95,1.27.58.74,1.18,1.46,1.81,2.14.24.27.49.54.75.8.15.16.3.31.45.45.18.19.37.37.55.54.39.38.78.74,1.18,1.09.47.42.96.83,1.46,1.22,9.5,7.57,22,10.12,33.58,9.8,2.56-.07,5.08-.28,7.5-.61.11-.01.22-.03.32-.05,3.78-.52,7.34-1.34,10.52-2.35,7.53-2.4,13.64-6.57,22.27-13.77,2.62-2.19,5.49-4.67,8.7-7.47.78-.67,1.58-1.37,2.41-2.09,1.78-1.55,3.42-3.02,4.94-4.43,4.97-4.6,8.65-8.47,11.97-11.95t.02-.02c.47-.49.93-.98,1.39-1.46,5.31-5.56,9.95-10.22,17.91-15.53,3.86-2.58,7.66-4.75,11.26-6.56.22-.11.33-.17.33-.17,1.61,2.53,3.52,4.89,5.72,7.02.68.66,1.37,1.34,2.07,2.05-4.68,4.12-8.42,9.42-11.43,14.84-3.02,5.45-5.52,11.22-7.2,17.18-1.42,5.02-2.27,10.18-2.37,15.39-.16,8.21,1.65,16.55,5.55,23.81,0,0,0,.01,0,.02,1.5,2.8,3.33,5.45,5.47,7.86.08.09.16.17.24.26,1.07,1.19,2.24,2.32,3.47,3.36.24.21.44.39.62.53.08.07.17.14.26.22.27.21.41.32.41.32h0c.54.42,1.1.83,1.66,1.23.2,1.53.4,3.11.59,4.73.79,6.59,1.47,13.94,1.97,21.99v.02c.08,1.29.15,2.61.22,3.94Z" fill="#fff" stroke-width="0"/><path d="m275.31,350.23c.11,11.49-.68,22.12-.77,23.33-.01.07-.01.11-.01.11,0,0,0,0-.01.03-.25.51-4.81,8.72-37.72,8.72-3.43,0-6.82-.13-10.17-.35-29.81-2.02-56.59-11.98-83.69-11.98-30.16,0-43.01,8.73-43.01,8.73-4.26-17.92-4.88-36.02-3.64-52.61,0-.03,0-.05.01-.08.21-2.79.47-5.53.78-8.22.55-4.9,1.25-9.63,2.05-14.16,4.84-27.5,13.2-47.09,13.61-48.04,0-.03.02-.04.02-.04,4.18,2.71,7.12,3.56,7.79,3.73.1.02.15.03.15.03.69,4.91,2.01,9.41,3.95,13.45.2.42.41.84.63,1.24.08.18.18.35.28.53.24.44.48.88.75,1.31.24.43.5.85.78,1.26.02.02.03.04.04.06.27.43.56.85.87,1.27.29.43.61.85.95,1.27.56.74,1.16,1.45,1.81,2.14.23.27.48.54.75.8.15.16.3.31.45.45.17.19.36.37.55.54.39.38.78.74,1.18,1.09.47.42.96.83,1.46,1.22,7.95,6.28,19.02,9.77,33,9.81.19,0,.39,0,.58,0,2.56-.01,5.06-.22,7.5-.61.11-.01.22-.03.32-.05,12.21-1.98,22.91-8.25,32.79-16.12,2.97-2.37,5.86-4.88,8.7-7.47,2.49-2.26,4.93-4.58,7.35-6.91,3.67-3.54,7.27-7.1,10.84-10.5.38-.36.76-.72,1.13-1.06t.02-.02c17.03-16.01,28.52-22.46,30.56-23.55.22-.11.33-.17.33-.17l7.79,9.07c-9.85,11.87-15.62,22.56-18.63,32.02-3.76,11.82-3.21,21.72-.9,29.58,1.07,3.65,2.51,6.86,4.08,9.62,0,0,0,.01,0,.02.17.3.35.6.52.89,3.21,5.38,6.8,8.94,8.66,10.59.24.21.44.39.62.53.1.08.19.16.26.22.27.21.41.32.41.32h0c.93,1.48,1.67,3.52,2.25,5.96,1.41,5.93,1.9,14.16,1.97,21.99v.02Z" fill="#f7ea6a" stroke-width="0"/><path d="m261.14,310.6c-.81,1.8-2.96,2.32-7.74-.55-12.92-7.77-13.6,9.05-43.01,17.14-29.41,8.09-27.21-13.97-54.01-14.41-26.8-.43-15.47,8.89-40.47,10.71-10.3.75-15.86-2.04-18.83-5.58.55-4.9,1.25-9.63,2.05-14.16,3.82,5.54,8.44,9.48,13.81,9.48,18.04,0,22.08-10.49,37.35-10.49s38.41,13.66,51.76,13.66,22.31-6.86,29.52-13.67c5.39-5.09,18.63-3.69,24.96-2.66,1.07,3.65,2.51,6.86,4.08,9.62,0,0,0,.01,0,.02.17.3.35.6.52.89Z" fill="#eed057" stroke-width="0"/><path d="m120.69,412.39c-2.6,5.06-5.82,8.17-9.24,8.39-2.87.19-7.4-1.57-14.08-13.85-23.8-43.78-12.96-101.83-12.96-101.83,2.87-15.34,8.98-38.29,23.4-64-.04.89-.04,1.79.01,2.69.11,2.16.52,4.34,1.29,6.35.61,1.61,1.45,3.1,2.56,4.4.34.4.7.78,1.09,1.13-10.71,27.15-16.59,56.2-17.26,85.38-.51,22.39.53,39.57,11.18,55.9,2.19,3.36,4.71,6.51,7.51,9.44.4.42.8.83,1.21,1.23,1.67,1.67,3.43,3.26,5.29,4.77Z" fill="#57bb6e" stroke-width="0"/><path d="m115.4,407.62c-1.31.59-3.39,1.26-5.75.87-4.45-.74-7.08-4.78-8.18-6.47-12.37-18.97-13.58-44.72-13.58-44.72-2.14-45.25,8.18-79.62,13.79-91.53,0,0,.47-.99,7.42-15.63h.01c.61,1.61,1.45,3.1,2.56,4.4.34.4.7.78,1.09,1.13-10.71,27.15-16.59,56.2-17.26,85.38-.6,26.27,2.22,42.29,11.18,55.9,3.17,4.82,6.42,8.38,8.72,10.67Z" fill="#238240" stroke-width="0"/><path d="m301.7,408.59c-6.82,13.5-15.46,21.43-24.56,20.29h0c-.62-.08-1.24-.2-1.87-.37-11.98-3.13-11.55-11.26-8.29-23.66,2.22-8.48,5.77-18.95,7.55-31.18.9-6.07,1.35-12.59,1-19.5-.6-11.65-1.62-21.93-2.78-30.68-2.45-1.72-4.7-3.71-6.66-5.92-1.21-1.36-2.32-2.8-3.32-4.29-5.4-8.02-7.9-17.8-7.71-27.4.22-11.39,4-22.52,9.57-32.57,3.01-5.42,6.75-10.72,11.43-14.84,15.06,15.17,35.28,41.85,39.01,78.27,3.61,35.37-2.62,70.55-13.37,91.85Z" fill="#57bb6e" stroke-width="0"/><path d="m301.7,408.59c-6.82,13.5-15.46,21.43-24.56,20.29h0c-.62-.08-1.24-.2-1.87-.37-11.98-3.13-11.55-11.26-8.29-23.66,2.22-8.48,5.77-18.95,7.55-31.18.9-6.07,1.35-12.59,1-19.5-.6-11.65-1.62-21.93-2.78-30.68-2.24-11.47-4.47-22.95-6.71-34.42,0,0,28.85,47.39,19.04,93.41-6.06,28.43,3.67,34.9,16.62,26.11Z" fill="#238240" stroke-width="0"/><path d="m256.34,281.97s5.39,19.28,12.97,20.76l3.44,20.76s-20.65-16.73-16.41-41.52Z" fill="#238240" stroke-width="0"/><path d="m117.36,89.17c-5.4,1.27-10.79,2.53-16.19,3.8,20.22-15.48,45.84-23.64,71.27-23.14-4.19-2.15-8.94-3.2-13.63-2.95,11.7-1.54,23.83-3.04,35.11.42,4.2,1.29,8.18,3.26,11.76,5.79,2.52-.37,5.03-.74,7.55-1.1.04,1.29.09,2.57.13,3.86,9.26-.57,18.76,3.08,25.16,9.84,2.35,2.48,4.29,5.33,6.43,8-1.32-.14-2.64-.28-3.96-.47-3.43-.49-6.92-1.35-9.89-3.08.03,2.6.37,5.19.98,7.71-5.28-2.44-10.16-5.73-14.42-9.69-.48,2.9-.68,5.86-.59,8.8-3.29-1.51-6.3-3.6-9.24-5.73.15,1.36.31,2.73.46,4.09-16.21-6.76-33.42-11.13-50.89-12.95,1.62,3.72,3.86,7.17,6.62,10.15-5.26-.67-10.45-1.94-15.43-3.75-.63,2.96-1.9,5.78-3.7,8.21-2.76-2.31-5.52-4.61-8.28-6.92-9.6,4.41-19.2,8.83-28.8,13.24.59-1.47,1.27-2.91,2.03-4.3,1.99-3.64,4.53-6.97,7.52-9.83Z" fill="#5798b9" stroke-width="0"/><path d="m262.42,203.35c.57-4.6.97-8.58,1.25-11.81,2.95-34,5.29-65.83-13.18-88.84-3.75-4.66-7.44-7.83-9.5-9.48-3.43-.49-6.92-1.35-9.89-3.08.03,2.6.37,5.19.98,7.71-1.69-.78-3.34-1.65-4.94-2.61,24.24,23.07,30.12,76.95,16.3,113.53-5.15,13.65-6.19,28.51-4.67,42.89,5.31-5.56,9.95-10.22,17.91-15.53,3.98-2.66,7.89-4.88,11.59-6.73-4.88-7.65-6.99-16.87-5.85-26.05Zm-44.79-114.99c.21.11.42.22.63.33-.2-.16-.4-.35-.6-.53-.01.07-.02.13-.03.2Zm-53.9,3.83c4.14-2.49,9.18-4.72,15.25-6.24-7.11-1.63-14.33-2.82-21.58-3.58,1.56,3.59,3.7,6.92,6.33,9.82Zm-18.84,4.79c-2.76-2.31-5.52-4.61-8.28-6.92-3.08,1.41-6.15,2.83-9.23,4.24,6.93,3.14,13.94,7.92,19.54,15.2,0,0,4.33-9.63,16.43-17.07-5.03-.69-9.99-1.93-14.76-3.66-.63,2.96-1.9,5.78-3.7,8.21Z" fill="#57bb6e" stroke-width="0"/><path d="m227.14,95.24c-3.34-1.97-6.47-4.29-9.31-6.95-.12.04-.09.03-.2.07-.19,1.19-.34,2.38-.44,3.58h0c-.13,1.68-.17,3.35-.12,5.02-3.29-1.51-6.3-3.6-9.24-5.73.15,1.36.31,2.73.46,4.09-9.48-3.95-19.3-7.09-29.31-9.37-6.07,1.52-11.11,3.75-15.25,6.24.09.11.19.22.29.33-.22-.03-.45-.06-.67-.09-3.26,2-5.95,4.16-8.14,6.24-4.99,4.74-12.65,5.24-18.22,1.19-3.12-2.27-6.38-4.09-9.61-5.56-6.52,3-13.05,6-19.57,9,.59-1.47,1.27-2.91,2.03-4.3-3.8.23-7.55,1.55-10.62,3.8-4.23,3.1-7.14,7.93-7.9,13.11-.39,2.66-.07,5.57,1.06,7.99,8.25-12.65,27.98-17.03,39.2-4.47,5.45,6.12,7.6,15.02,5.53,22.95-2.07,7.92-8.29,14.64-16.04,17.31-5.69,1.96-12.11,1.76-17.65-.59-1.42-.6-2.77-1.35-4.03-2.22-.01,2.24.37,4.49,1.13,6.59.54,1.47,1.24,2.86,2.1,4.16h.01c2.6,4,6.57,7.11,11.03,8.86.68.27,1.37.5,2.07.7,4.53-1.91,9.58-5.13,17.74-10.34,2.54-1.62,4.55-2.96,6.19-4.07,5.11-3.43,6.76-4.61,10.12-4.89,10.26-.86,13.18,8.77,21.17,11.78,3.62,1.36,9.2.56,13.09,1.03,5.52.68,11.01,1.67,16.29,3.49,9.23,3.17,17.9,9.15,22.21,17.91,4.32,8.76,3.25,20.47-4.06,26.95-5.14,4.56-11.07,5.77-26.78,6.06-15.95.29-29.05-.23-39.96-.82-3.38,10.02-5.75,20.57-12.94,28.13-3.52,3.71-8.18,6.48-13.26,7.11-1.6.2-3.24.16-4.84-.1.55,4.09,1.69,8.78,3.95,13.45.2.42.41.84.63,1.24.08.18.18.36.28.53.24.44.48.88.75,1.31.25.42.51.84.78,1.26.02.02.03.04.04.06.28.43.57.85.87,1.27.3.42.62.85.95,1.27.58.74,1.18,1.46,1.81,2.14.24.27.49.54.75.8.15.16.3.31.45.45.18.19.37.37.55.54.38.39.78.74,1.18,1.09.47.42.96.83,1.46,1.22,9.34,7.44,21.58,10.03,33,9.81h.2c.13,0,.26,0,.38,0,2.56-.07,5.08-.28,7.5-.61.11-.01.22-.03.32-.05,3.78-.52,7.34-1.34,10.52-2.35,7.53-2.4,13.64-6.57,22.27-13.77,2.62-2.19,5.49-4.67,8.7-7.47.78-.67,1.58-1.37,2.41-2.09,1.78-1.55,3.42-3.02,4.94-4.43,4.97-4.6,8.65-8.47,11.97-11.95t.02-.02c.47-.49.93-.98,1.39-1.46-1.52-14.38-.48-29.24,4.67-42.89,13.82-36.58,7.94-90.46-16.3-113.53Zm-11.52,51.73c-8.1,8.74-22.41,12.41-33.68,6.66-8.54-4.35-13.09-12.96-13.55-20.75-.85-14.5,12.28-29.59,28.15-29.5,9.49.05,18.61,5.51,23.19,13.66,5.69,10.14,3.05,22.2-4.11,29.93Z" fill="#fff" stroke-width="0"/><path d="m147.83,151.85c-.17,1.25-.7,3.92-2.7,6.58-1.96,2.6-4.31,3.84-5.46,4.36-1.64,1.11-3.65,2.45-6.19,4.07-8.16,5.21-13.21,8.43-17.74,10.34-.7-.2-1.39-.43-2.07-.7-4.46-1.75-8.43-4.86-11.03-8.85.88.92,1.96,1.81,3.29,2.54,6.53,3.6,14.34.5,19.4-1.5,10.65-4.21,18.01-11.36,22.51-16.83Z" fill="#e9e5e4" stroke-width="0"/><path d="m243.44,208.77c-5.15,13.65-6.19,28.51-4.67,42.89-.46.48-.92.97-1.39,1.46t-.02.02c-3.32,3.48-7,7.35-11.97,11.95v-.39c-.6-52.9,16.58-57.69,15-118.44-.69-26.7-11.06-43.62-23.2-54.31h0c.1-1.21.25-2.4.44-3.59.11-.04.08-.03.2-.07,2.84,2.66,5.97,4.98,9.31,6.95,24.24,23.07,30.12,76.95,16.3,113.53Z" fill="#e9e5e4" stroke-width="0"/><path d="m199.64,120.9c4.97,2.51,7.87,8.26,6.8,13.93-.95,5.03-4.85,9.05-9.84,10.2-4.75,1.1-10.06-.74-13.09-4.56-3.23-4.07-3.51-9.58-1.35-13.77,3.1-6.03,11.12-9.01,17.48-5.8Zm-2.12,15.65c1.11-1.39,1.07-3.57-.09-4.92-1.95-2.26-5.75-1.45-6.62,1.38-.52,1.7.31,3.72,1.89,4.55,1.57.83,3.71.39,4.82-1.01Z" fill="#231f20" stroke-width="0"/><path d="m197.43,131.63c1.16,1.35,1.2,3.53.09,4.92-1.11,1.4-3.25,1.84-4.82,1.01-1.58-.83-2.41-2.85-1.89-4.55.87-2.83,4.67-3.64,6.62-1.38Z" fill="#fff" stroke-width="0"/><path d="m117.21,137.17c.15,2.85-.95,5.79-3.09,7.67-2.14,1.89-5.31,2.61-7.99,1.64-3.25-1.17-5.38-4.73-5.13-8.17.39-5.5,7.46-11.06,12.75-7.65,2.14,1.39,3.33,3.96,3.46,6.51Zm-8.33,2.52c1.79-1.59.94-5.48-1.74-5.45-2.34.03-2.81,4-1.51,5.41.81.88,2.35.84,3.25.04Z" fill="#231f20" stroke-width="0"/><path d="m107.14,134.24c2.68-.03,3.53,3.86,1.74,5.45-.9.8-2.44.84-3.25-.04-1.3-1.41-.83-5.38,1.51-5.41Z" fill="#fff" stroke-width="0"/><path d="m92.38,123.91c-2.07,3.15-3.41,6.8-3.73,10.84-.69,8.57,3.7,17.28,10.74,22.13,1.26.87,2.61,1.62,4.03,2.22,5.54,2.35,11.96,2.55,17.65.59,7.75-2.67,13.97-9.39,16.04-17.31,2.07-7.93-.08-16.83-5.53-22.95-11.22-12.56-30.95-8.18-39.2,4.47" fill="none" stroke="#231f20" stroke-linecap="round" stroke-linejoin="round" stroke-width="2"/><path d="m92.38,123.91h0c-1.13-2.43-1.45-5.34-1.06-8,.76-5.18,3.67-10.01,7.9-13.11,3.07-2.25,6.82-3.57,10.62-3.8" fill="none" stroke="#231f20" stroke-linecap="round" stroke-linejoin="round" stroke-width="2"/><path d="m99.39,156.88c-.01,2.24.37,4.49,1.13,6.59,2.17,5.97,7.22,10.7,13.14,13.02.68.27,1.37.5,2.07.7" fill="none" stroke="#231f20" stroke-linecap="round" stroke-linejoin="round" stroke-width="2"/><path d="m117.25,208.73c-1.81-.05-3.61-.11-5.41-.19-3.97-.18-7.94-.47-11.89-.94-5.3-.63-11.83-1.59-16.32,2.39-4.12,3.65-5.77,10.78-3.16,13.7,2.84,3.18,9.92.48,16.31-1.14,2.59-.66,4.26-.93,14.48-.5" fill="none" stroke="#231f20" stroke-linecap="round" stroke-linejoin="round" stroke-width="2"/><path d="m112.44,199.12c-3.89.06-13.92.13-26.19-.63-17.22-1.05-19.4-2.52-20.28-4.32-2.17-4.47,2.58-13.39,9.76-17.13,11.33-5.93,19.39,5.91,35.85,1.58,1.39-.36,2.74-.83,4.15-1.43,4.53-1.91,9.58-5.13,17.74-10.34,10.41-6.64,11.87-8.59,16.31-8.96,10.26-.86,13.18,8.77,21.17,11.78,3.62,1.36,9.2.56,13.09,1.03,5.52.68,11.01,1.67,16.29,3.49,9.23,3.17,17.9,9.15,22.21,17.91,4.32,8.76,3.25,20.47-4.06,26.95-5.14,4.56-11.07,5.77-26.78,6.06-15.95.29-29.05-.23-39.96-.82" fill="none" stroke="#231f20" stroke-linecap="round" stroke-linejoin="round" stroke-width="2"/><path d="m158.66,209.59c2.26.07,4.17.12,5.81.16,9.06.2,9.65-.04,13.6,1.02,6.53,1.75,11.34,4.11,16.76,1.8,5.07-2.16,9.67-7.99,8.55-12.47-.13-.53-.68-2.43-3.27-4.19-8.99-6.14-28.22-.83-52.33,1.75-2.53.27-5.12.52-7.75.71-3.11.23-10.86.39-26.34.72-.29,0-.7.02-1.24.03" fill="none" stroke="#231f20" stroke-linecap="round" stroke-linejoin="round" stroke-width="2"/><path d="m112.44,199.12h.01c.83,3.09.61,6.47-.61,9.42" fill="none" stroke="#231f20" stroke-linecap="round" stroke-linejoin="round" stroke-width="2"/><path d="m164.47,209.75c-.31-1.41-.9-2.9-1.93-4.32-.01-.02-.03-.04-.04-.06-2.6-3.5-6.39-4.34-8.15-4.74-4.63-1.03-8.73.22-11.41,1.47-1.43.67-2.45,1.33-2.93,1.66-1.95-1.24-7-4.07-12.69-2.79-4.56,1.02-7.71,4.19-10.06,7.76h-.01c-1.17,1.77-2.15,3.63-3.01,5.38-1.25,2.55-2.21,5.21-2.98,7.94-.96,3.35-1.64,6.79-2.28,10.21-.54,2.92-1.06,5.88-1.17,8.84-.04.89-.04,1.79,0,2.69.2,3.87,1.34,7.8,3.85,10.75.34.4.7.78,1.09,1.13,2.17,2.01,4.99,3.28,7.94,3.76,1.6.26,3.24.3,4.84.1,5.08-.63,9.74-3.4,13.26-7.11,7.19-7.56,9.56-18.11,12.94-28.13,1.76-5.21,3.79-10.28,6.92-14.7" fill="none" stroke="#231f20" stroke-linecap="round" stroke-linejoin="round" stroke-width="2"/><path d="m124.09,241.36c1.58-7.15,3.28-13.15,5.32-18.36,2.11-5.38,4.57-9.94,7.65-14.09,1.74-2.38,3.69-4.62,5.88-6.81" fill="none" stroke="#231f20" stroke-linecap="round" stroke-linejoin="round" stroke-width="2"/><path d="m150.29,173.58c.13-1.42.32-2.91,1.17-4.06.84-1.15,2.57-1.78,3.74-.96,1.12.78,1.21,2.37,1.18,3.73-.01,1.11-.03,2.24-.39,3.29-.37,1.05-1.13,2.03-2.19,2.35" fill="none" stroke="#231f20" stroke-linecap="round" stroke-linejoin="round" stroke-width="2"/><path d="m168.39,132.88c.46,7.79,5.01,16.4,13.55,20.75,11.27,5.75,25.58,2.08,33.68-6.66,7.16-7.73,9.8-19.79,4.11-29.93-4.58-8.15-13.7-13.61-23.19-13.66-15.87-.09-29,15-28.15,29.5Z" fill="none" stroke="#231f20" stroke-linecap="round" stroke-linejoin="round" stroke-width="2.05"/><path d="m187.96,91.35c-9.85.7-19.27,6.12-24.82,14.29-5.55,8.17-7.12,18.92-4.14,28.34" fill="none" stroke="#231f20" stroke-linecap="round" stroke-linejoin="round" stroke-width="2"/><path d="m151.89,127.86c-3.25-5.68-2.09-13.53,2.67-18.03" fill="none" stroke="#231f20" stroke-linecap="round" stroke-linejoin="round" stroke-width="2"/><path d="m231.78,134.24c-2.18,12.87-11.67,24.24-23.95,28.69" fill="none" stroke="#231f20" stroke-linecap="round" stroke-linejoin="round" stroke-width="2"/><path d="m218.1,162.45c2.92-1.19,5.51-3.18,7.42-5.69" fill="none" stroke="#231f20" stroke-linecap="round" stroke-linejoin="round" stroke-width="2"/><path d="m136.61,90.06c-9.6,4.41-19.2,8.83-28.8,13.24.59-1.47,1.27-2.91,2.03-4.3,1.99-3.64,4.53-6.97,7.52-9.83,1.1-1.07,2.27-2.07,3.49-3" fill="none" stroke="#231f20" stroke-linecap="round" stroke-linejoin="round" stroke-width="2"/><path d="m117.36,89.17c-5.4,1.27-10.79,2.53-16.19,3.8,20.22-15.48,45.84-23.64,71.27-23.14" fill="none" stroke="#231f20" stroke-linecap="round" stroke-linejoin="round" stroke-width="2"/><path d="m172.45,69.83h-.01c-4.19-2.15-8.94-3.2-13.63-2.95,11.7-1.54,23.83-3.04,35.11.42,4.2,1.29,8.18,3.26,11.76,5.79" fill="none" stroke="#231f20" stroke-linecap="round" stroke-linejoin="round" stroke-width="2"/><path d="m205.68,73.09c2.52-.37,5.03-.74,7.55-1.1.04,1.29.09,2.57.13,3.86" fill="none" stroke="#231f20" stroke-linecap="round" stroke-linejoin="round" stroke-width="2"/><path d="m213.36,75.85c9.26-.57,18.76,3.08,25.16,9.84,2.35,2.48,4.29,5.33,6.43,8" fill="none" stroke="#231f20" stroke-linecap="round" stroke-linejoin="round" stroke-width="2"/><path d="m244.95,93.69c-1.32-.14-2.64-.28-3.96-.47-3.43-.49-6.92-1.35-9.89-3.08-.83-.48-1.61-1.02-2.34-1.64" fill="none" stroke="#231f20" stroke-linecap="round" stroke-linejoin="round" stroke-width="2"/><path d="m232.08,97.85c-.61-2.52-.95-5.11-.98-7.71" fill="none" stroke="#231f20" stroke-linecap="round" stroke-linejoin="round" stroke-width="2"/><path d="m232.08,97.85c-5.28-2.44-10.16-5.73-14.42-9.69" fill="none" stroke="#231f20" stroke-linecap="round" stroke-linejoin="round" stroke-width="2"/><path d="m217.07,96.96c-.09-2.94.11-5.9.59-8.8" fill="none" stroke="#231f20" stroke-linecap="round" stroke-linejoin="round" stroke-width="2"/><path d="m217.07,96.96c-3.29-1.51-6.3-3.6-9.24-5.73" fill="none" stroke="#231f20" stroke-linecap="round" stroke-linejoin="round" stroke-width="2"/><path d="m207.83,91.23c.15,1.36.31,2.73.46,4.09-16.21-6.76-33.42-11.13-50.89-12.95" fill="none" stroke="#231f20" stroke-linecap="round" stroke-linejoin="round" stroke-width="2"/><path d="m146.92,88.15c.55.22,1.11.42,1.67.62,4.98,1.81,10.17,3.08,15.43,3.75-2.76-2.98-5-6.43-6.62-10.15" fill="none" stroke="#231f20" stroke-linecap="round" stroke-linejoin="round" stroke-width="2"/><path d="m136.61,90.06c2.76,2.31,5.52,4.61,8.28,6.92,1.8-2.43,3.07-5.25,3.7-8.21" fill="none" stroke="#231f20" stroke-linecap="round" stroke-linejoin="round" stroke-width="2"/><path d="m277.14,428.87c-.62-.07-1.24-.19-1.87-.36-11.98-3.13-11.55-11.26-8.29-23.66,2.22-8.48,5.77-18.95,7.55-31.18.9-6.07,1.35-12.59,1-19.5-.6-11.65-1.62-21.93-2.78-30.68-2.92-22.11-6.71-34.42-6.71-34.42" fill="none" stroke="#231f20" stroke-linecap="round" stroke-linejoin="round" stroke-width="2"/><path d="m240.99,93.22c2.06,1.65,5.75,4.82,9.5,9.48,18.47,23.01,16.13,54.84,13.18,88.84-.28,3.23-.68,7.21-1.25,11.81-1.14,9.18.97,18.4,5.85,26.05,1.61,2.53,3.52,4.89,5.72,7.02.68.66,1.37,1.34,2.07,2.05,15.06,15.17,35.28,41.85,39.01,78.27,5.9,57.78-14.46,115.07-37.93,112.14" fill="none" stroke="#231f20" stroke-linecap="round" stroke-linejoin="round" stroke-width="2"/><path d="m107.81,241.1c-14.42,25.71-20.53,48.66-23.4,64,0,0-10.84,58.05,12.96,101.83,6.68,12.28,11.21,14.04,14.08,13.85,3.42-.22,6.64-3.33,9.24-8.39" fill="none" stroke="#231f20" stroke-linecap="round" stroke-linejoin="round" stroke-width="2"/><path d="m112.76,255.67c-10.71,27.15-16.59,56.2-17.26,85.38-.51,22.39.53,39.57,11.18,55.9,2.19,3.36,4.71,6.51,7.51,9.44,2.02,2.12,4.19,4.12,6.5,6,2.82,2.32,5.84,4.46,9.03,6.42,12.89,7.93,28.53,12.97,44.99,14.81,10.48,1.16,21.27,1.03,31.91-.46" fill="none" stroke="#231f20" stroke-linecap="round" stroke-linejoin="round" stroke-width="2"/><path d="m272.75,323.49c-2.45-1.72-4.7-3.71-6.66-5.92-7.69-8.65-11.25-20.3-11.03-31.69s4-22.52,9.57-32.57c3.01-5.42,6.75-10.72,11.43-14.84" fill="none" stroke="#231f20" stroke-linecap="round" stroke-linejoin="round" stroke-width="2.23"/><path d="m103.24,307.32c4.78,4.35,11.63,6.3,17.99,5.13" fill="none" stroke="#231f20" stroke-linecap="round" stroke-linejoin="round" stroke-width="2.23"/><path d="m135.58,307.32c5.69-4.07,13.11-5.2,20.05-4.3,6.95.9,13.51,3.66,19.76,6.81" fill="none" stroke="#231f20" stroke-linecap="round" stroke-linejoin="round" stroke-width="2.23"/><path d="m185.07,313.06c12.02,5.37,26.73,4.2,37.74-3.01" fill="none" stroke="#231f20" stroke-linecap="round" stroke-linejoin="round" stroke-width="2.23"/><path d="m120.7,259.43c.82,6.15,2.99,13.65,8.25,20.39,14.26,18.24,41.43,18.33,58.12,13.03,10.39-3.31,18.06-9.98,33.38-23.33,18.03-15.71,21.25-23.4,36.23-33.39,3.98-2.66,7.89-4.88,11.59-6.73" fill="none" stroke="#231f20" stroke-linecap="round" stroke-linejoin="round" stroke-width="2"/><path d="m117.04,99.36c2.57.02,6.91.39,11.68,2.58,6.53,3,10.19,7.71,11.72,9.96" fill="none" stroke="#231f20" stroke-linecap="round" stroke-linejoin="round" stroke-width="2"/><path d="m142.66,160.92c1.17-.95,3.52-3.15,4.92-6.8,1.17-3.05,1.13-5.74,1-7.21" fill="none" stroke="#231f20" stroke-linecap="round" stroke-linejoin="round" stroke-width="2"/><path d="m160.6,141.61s8.77,21.31,31.74,21.31c0,0-27.41,8.57-31.74-21.31Z" fill="#e9e5e4" stroke-width="0"/><path d="m111.08,222.71c-.06.2-.1.4-.15.6.06-.23.11-.43.15-.6Z" fill="#c52127" stroke-width="0"/><path d="m131.67,200.71c.07,0,.18.02.3.04-.1-.01-.2-.03-.3-.04Z" fill="#c52127" stroke-width="0"/><path d="m122.1,207.34c-2.57,1.65-14.78,28.4-9.86,32.58.83.82-.43-5.71,2.93-15.89,3.36-10.18,7.76-15.99,8.9-16.24s-.67-1.29-1.97-.45Z" fill="#f499a2" stroke-width="0"/></g><path d="m320.2,173.06c-24.3,67.84-79.3,122.84-147.14,147.14-67.85-24.3-122.85-79.3-147.15-147.14C50.21,105.21,105.21,50.21,173.06,25.91c67.84,24.3,122.84,79.3,147.14,147.15Z" fill="none" stroke="#231f20" stroke-linecap="round" stroke-linejoin="round" stroke-width="2"/></svg>